<svg width="36" height="36" viewBox="0 0 36 36" fill="none" xmlns="http://www.w3.org/2000/svg">
  <path d="M6 4 L6 32 L18 32 C26 32 32 26 32 18 C32 10 26 4 18 4 Z" fill="#0B0F14"/>
  <path d="M6 4 L22 4 L22 4 L14 12 L14 24 L22 24 L22 32 L18 32 C26 32 32 26 32 18 C32 10 26 4 18 4 Z" fill="url(#metal)"/>
  <path d="M6 4 L18 4 L10 12 L10 24 L18 24 L10 32 L6 32 Z" fill="#0B0F14"/>
  <defs>
    <linearGradient id="metal" x1="6" y1="4" x2="32" y2="32" gradientUnits="userSpaceOnUse">
      <stop offset="0%" stopColor="#C8CEDD"/>
      <stop offset="40%" stopColor="#E6E8ED"/>
      <stop offset="70%" stopColor="#8892A0"/>
      <stop offset="100%" stopColor="#1E2533"/>
    </linearGradient>
  </defs>
</svg>
